# xmcd
#
# Track frame offsets:
#	150
#	16655
#	31193
#	51547
#	67628
#	81644
#	91951
#	108681
#	121645
#	133864
#	146823
#	161669
#
# Disc length: 2358 seconds
#
# Revision: 2
# Processed by: cddbd v1.5.2PL0 Copyright (c) Steve Scherf et al.
# Submitted via: EasyCDDAExtractor 12.0.0.1
#
DISCID=a009340c
DTITLE=Rocio Durcal - Alma Ranchera
DYEAR=2004
DGENRE=Latin
TTITLE0=Un Mundo Raro
TTITLE1=Si Dios Me Quita La Vida
TTITLE2=Cucurrucucu Paloma
TTITLE3=Fallaste Corazon
TTITLE4=Sufro Tu Ausencia
TTITLE5=Fiesta En El Corazon
TTITLE6=Amaneci En Tus Brazos
TTITLE7=Echame A Mi La Culpa
TTITLE8=La Media Vuelta
TTITLE9=Esta Tristeza Mia
TTITLE10=Te Parto El Alma
TTITLE11=Vete A Volar
EXTD=
EXTT0=
EXTT1=
EXTT2=
EXTT3=
EXTT4=
EXTT5=
EXTT6=
EXTT7=
EXTT8=
EXTT9=
EXTT10=
EXTT11=
PLAYORDER=
